<?xml version="1.0" encoding="UTF-8"?>
<svg xmlns="http://www.w3.org/2000/svg" xmlns:xlink="http://www.w3.org/1999/xlink" version="1.1" width="948" height="542" viewBox="0 0 948 542" font-family="Helvetica, Arial, 'Noto Sans', 'PingFang TC', sans-serif">
<metadata><rdf:RDF xmlns:rdf="http://www.w3.org/1999/02/22-rdf-syntax-ns#" xmlns:dc="http://purl.org/dc/elements/1.1/" xmlns:flowdoc="https://flowdoc.dev/ns#"><rdf:Description><dc:title>PROBE-RCT: Probiotics vs placebo for antibiotic-associated diarrhoea</dc:title><dc:identifier>doi:10.0000/example.2026.002</dc:identifier><dc:creator>Lin W; Chen Y</dc:creator><flowdoc:preset>consort-2010@1.0.0</flowdoc:preset><flowdoc:generatedAt>2026-04-25T00:00:00Z</flowdoc:generatedAt></rdf:Description></rdf:RDF></metadata>
<defs><marker id="arrow" viewBox="0 0 8 8" refX="7" refY="4" markerWidth="8" markerHeight="8" orient="auto-start-reverse"><path d="M0,0 L8,4 L0,8 Z" fill="#222222"/></marker></defs>
<rect x="0" y="0" width="948" height="542" fill="#ffffff"/>
<g class="section"><rect x="24" y="24" width="34" height="189" fill="#f3f6fb" stroke="none" rx="4" ry="4"/><text x="41" y="118.5" transform="rotate(-90, 41, 118.5)" text-anchor="middle" dominant-baseline="middle" font-size="13" font-weight="700" fill="#37475a">Enrolment</text></g>
<g class="section"><rect x="24" y="231" width="34" height="91" fill="#f3f6fb" stroke="none" rx="4" ry="4"/><text x="41" y="276.5" transform="rotate(-90, 41, 276.5)" text-anchor="middle" dominant-baseline="middle" font-size="13" font-weight="700" fill="#37475a">Allocation</text></g>
<g class="section"><rect x="24" y="340" width="34" height="80" fill="#f3f6fb" stroke="none" rx="4" ry="4"/><text x="41" y="380" transform="rotate(-90, 41, 380)" text-anchor="middle" dominant-baseline="middle" font-size="13" font-weight="700" fill="#37475a">Follow-up</text></g>
<g class="section"><rect x="24" y="438" width="34" height="80" fill="#f3f6fb" stroke="none" rx="4" ry="4"/><text x="41" y="478" transform="rotate(-90, 41, 478)" text-anchor="middle" dominant-baseline="middle" font-size="13" font-weight="700" fill="#37475a">Analysis</text></g>
<path d="M 624 69.5 L 664 69.5" fill="none" stroke="#222222" stroke-width="1.3" marker-end="url(#arrow)"/>
<path d="M 494 115 L 494 133" fill="none" stroke="#222222" stroke-width="1.3" marker-end="url(#arrow)"/>
<path d="M 494 213 L 494 222 L 194 222 L 194 231" fill="none" stroke="#222222" stroke-width="1.3" marker-end="url(#arrow)"/>
<path d="M 494 213 L 494 222 L 794 222 L 794 231" fill="none" stroke="#222222" stroke-width="1.3" marker-end="url(#arrow)"/>
<path d="M 194 322 L 194 340" fill="none" stroke="#222222" stroke-width="1.3" marker-end="url(#arrow)"/>
<path d="M 794 322 L 794 340" fill="none" stroke="#222222" stroke-width="1.3" marker-end="url(#arrow)"/>
<path d="M 194 420 L 194 438" fill="none" stroke="#222222" stroke-width="1.3" marker-end="url(#arrow)"/>
<path d="M 794 420 L 794 438" fill="none" stroke="#222222" stroke-width="1.3" marker-end="url(#arrow)"/>
<g class="node" data-id="assessed"><rect x="364" y="24" width="260" height="91" rx="2" ry="2" fill="#ffffff" stroke="#222222" stroke-width="1.2"/><text text-anchor="middle" fill="#1a1a1a" font-size="12"><tspan x="494" y="66.5">Assessed for eligibility</tspan><tspan x="494" y="81.5">(n = 612)</tspan></text></g>
<g class="node" data-id="excluded"><rect x="664" y="24" width="260" height="91" rx="2" ry="2" fill="#fafafa" stroke="#222222" stroke-width="1.2"/><text text-anchor="middle" fill="#1a1a1a" font-size="12"><tspan x="794" y="44">Excluded (n = 198)</tspan><tspan x="794" y="59">• Not meeting inclusion criteria (n</tspan><tspan x="794" y="74">= 142)</tspan><tspan x="794" y="89">• Declined to participate (n = 41)</tspan><tspan x="794" y="104">• Other reasons (n = 15)</tspan></text></g>
<g class="node" data-id="randomized"><rect x="364" y="133" width="260" height="80" rx="2" ry="2" fill="#ffffff" stroke="#222222" stroke-width="1.2"/><text text-anchor="middle" fill="#1a1a1a" font-size="12" font-weight="700"><tspan x="494" y="170">Randomized</tspan><tspan x="494" y="185">(n = 414)</tspan></text></g>
<g class="node" data-id="allocated_int"><rect x="64" y="231" width="260" height="91" rx="2" ry="2" fill="#ffffff" stroke="#222222" stroke-width="1.2"/><text text-anchor="middle" fill="#1a1a1a" font-size="12"><tspan x="194" y="251">Allocated to Probiotic (n = 207)</tspan><tspan x="194" y="266">• Received allocated intervention</tspan><tspan x="194" y="281">(n = 199)</tspan><tspan x="194" y="296">• Did not receive allocated</tspan><tspan x="194" y="311">intervention (n = 8)</tspan></text></g>
<g class="node" data-id="allocated_ctrl"><rect x="664" y="231" width="260" height="91" rx="2" ry="2" fill="#ffffff" stroke="#222222" stroke-width="1.2"/><text text-anchor="middle" fill="#1a1a1a" font-size="12"><tspan x="794" y="251">Allocated to Placebo (n = 207)</tspan><tspan x="794" y="266">• Received allocated intervention</tspan><tspan x="794" y="281">(n = 204)</tspan><tspan x="794" y="296">• Did not receive allocated</tspan><tspan x="794" y="311">intervention (n = 3)</tspan></text></g>
<g class="node" data-id="followup_int"><rect x="64" y="340" width="260" height="80" rx="2" ry="2" fill="#fafafa" stroke="#222222" stroke-width="1.2"/><text text-anchor="middle" fill="#1a1a1a" font-size="12"><tspan x="194" y="377">Lost to follow-up (n = 6)</tspan><tspan x="194" y="392">Discontinued intervention (n = 4)</tspan></text></g>
<g class="node" data-id="followup_ctrl"><rect x="664" y="340" width="260" height="80" rx="2" ry="2" fill="#fafafa" stroke="#222222" stroke-width="1.2"/><text text-anchor="middle" fill="#1a1a1a" font-size="12"><tspan x="794" y="377">Lost to follow-up (n = 5)</tspan><tspan x="794" y="392">Discontinued intervention (n = 2)</tspan></text></g>
<g class="node" data-id="analysed_int"><rect x="64" y="438" width="260" height="80" rx="2" ry="2" fill="#eaf1ff" stroke="#222222" stroke-width="1.2"/><text text-anchor="middle" fill="#1a1a1a" font-size="12" font-weight="700"><tspan x="194" y="475">Analysed (n = 197)</tspan><tspan x="194" y="490">Excluded from analysis (n = 10)</tspan></text></g>
<g class="node" data-id="analysed_ctrl"><rect x="664" y="438" width="260" height="80" rx="2" ry="2" fill="#eaf1ff" stroke="#222222" stroke-width="1.2"/><text text-anchor="middle" fill="#1a1a1a" font-size="12" font-weight="700"><tspan x="794" y="475">Analysed (n = 200)</tspan><tspan x="794" y="490">Excluded from analysis (n = 7)</tspan></text></g>
<text x="940" y="536" font-size="9" fill="#9aa0a6" text-anchor="end">Generated by FlowDoc · preset consort-2010@1.0.0</text>
</svg>