<?xml version="1.0" encoding="UTF-8"?>
<svg xmlns="http://www.w3.org/2000/svg" xmlns:xlink="http://www.w3.org/1999/xlink" version="1.1" width="948" height="640" viewBox="0 0 948 640" font-family="Helvetica, Arial, 'Noto Sans', 'PingFang TC', sans-serif">
<metadata><rdf:RDF xmlns:rdf="http://www.w3.org/1999/02/22-rdf-syntax-ns#" xmlns:dc="http://purl.org/dc/elements/1.1/" xmlns:flowdoc="https://flowdoc.dev/ns#"><rdf:Description><dc:title>PROBE-RCT: Probiotics vs placebo for antibiotic-associated diarrhoea</dc:title><dc:identifier>doi:10.0000/example.2026.002</dc:identifier><dc:creator>Lin W; Chen Y</dc:creator><flowdoc:preset>consort-2010@1.0.0</flowdoc:preset><flowdoc:generatedAt>2026-04-25T00:00:00Z</flowdoc:generatedAt></rdf:Description></rdf:RDF></metadata>
<defs><marker id="arrow" viewBox="0 0 8 8" refX="7" refY="4" markerWidth="8" markerHeight="8" orient="auto-start-reverse"><path d="M0,0 L8,4 L0,8 Z" fill="#222222"/></marker></defs>
<rect x="0" y="0" width="948" height="640" fill="#ffffff"/>
<g class="section"><rect x="24" y="24" width="34" height="287" fill="#f3f6fb" stroke="none" rx="4" ry="4"/><text x="41" y="167.5" transform="rotate(-90, 41, 167.5)" text-anchor="middle" dominant-baseline="middle" font-size="13" font-weight="700" fill="#37475a">Enrolment</text></g>
<g class="section"><rect x="24" y="329" width="34" height="91" fill="#f3f6fb" stroke="none" rx="4" ry="4"/><text x="41" y="374.5" transform="rotate(-90, 41, 374.5)" text-anchor="middle" dominant-baseline="middle" font-size="13" font-weight="700" fill="#37475a">Allocation</text></g>
<g class="section"><rect x="24" y="438" width="34" height="80" fill="#f3f6fb" stroke="none" rx="4" ry="4"/><text x="41" y="478" transform="rotate(-90, 41, 478)" text-anchor="middle" dominant-baseline="middle" font-size="13" font-weight="700" fill="#37475a">Follow-up</text></g>
<g class="section"><rect x="24" y="536" width="34" height="80" fill="#f3f6fb" stroke="none" rx="4" ry="4"/><text x="41" y="576" transform="rotate(-90, 41, 576)" text-anchor="middle" dominant-baseline="middle" font-size="13" font-weight="700" fill="#37475a">Analysis</text></g>
<path d="M 624 64 L 644 64 L 644 167.5 L 664 167.5" fill="none" stroke="#222222" stroke-width="1.3" marker-end="url(#arrow)"/>
<path d="M 494 104 L 494 231" fill="none" stroke="#222222" stroke-width="1.3" marker-end="url(#arrow)"/>
<path d="M 494 311 L 494 320 L 194 320 L 194 329" fill="none" stroke="#222222" stroke-width="1.3" marker-end="url(#arrow)"/>
<path d="M 494 311 L 494 320 L 794 320 L 794 329" fill="none" stroke="#222222" stroke-width="1.3" marker-end="url(#arrow)"/>
<path d="M 194 420 L 194 438" fill="none" stroke="#222222" stroke-width="1.3" marker-end="url(#arrow)"/>
<path d="M 794 420 L 794 438" fill="none" stroke="#222222" stroke-width="1.3" marker-end="url(#arrow)"/>
<path d="M 194 518 L 194 536" fill="none" stroke="#222222" stroke-width="1.3" marker-end="url(#arrow)"/>
<path d="M 794 518 L 794 536" fill="none" stroke="#222222" stroke-width="1.3" marker-end="url(#arrow)"/>
<g class="node" data-id="assessed"><rect x="364" y="24" width="260" height="80" rx="2" ry="2" fill="#ffffff" stroke="#222222" stroke-width="1.2"/><text text-anchor="middle" fill="#1a1a1a" font-size="12"><tspan x="494" y="61">Assessed for eligibility</tspan><tspan x="494" y="76">(n = 612)</tspan></text></g>
<g class="node" data-id="excluded"><rect x="664" y="122" width="260" height="91" rx="2" ry="2" fill="#fafafa" stroke="#222222" stroke-width="1.2"/><text text-anchor="middle" fill="#1a1a1a" font-size="12"><tspan x="794" y="142">Excluded (n = 198)</tspan><tspan x="794" y="157">• Not meeting inclusion criteria (n</tspan><tspan x="794" y="172">= 142)</tspan><tspan x="794" y="187">• Declined to participate (n = 41)</tspan><tspan x="794" y="202">• Other reasons (n = 15)</tspan></text></g>
<g class="node" data-id="randomized"><rect x="364" y="231" width="260" height="80" rx="2" ry="2" fill="#ffffff" stroke="#222222" stroke-width="1.2"/><text text-anchor="middle" fill="#1a1a1a" font-size="12" font-weight="700"><tspan x="494" y="268">Randomized</tspan><tspan x="494" y="283">(n = 414)</tspan></text></g>
<g class="node" data-id="allocated_int"><rect x="64" y="329" width="260" height="91" rx="2" ry="2" fill="#ffffff" stroke="#222222" stroke-width="1.2"/><text text-anchor="middle" fill="#1a1a1a" font-size="12"><tspan x="194" y="349">Allocated to Probiotic (n = 207)</tspan><tspan x="194" y="364">• Received allocated intervention</tspan><tspan x="194" y="379">(n = 199)</tspan><tspan x="194" y="394">• Did not receive allocated</tspan><tspan x="194" y="409">intervention (n = 8)</tspan></text></g>
<g class="node" data-id="allocated_ctrl"><rect x="664" y="329" width="260" height="91" rx="2" ry="2" fill="#ffffff" stroke="#222222" stroke-width="1.2"/><text text-anchor="middle" fill="#1a1a1a" font-size="12"><tspan x="794" y="349">Allocated to Placebo (n = 207)</tspan><tspan x="794" y="364">• Received allocated intervention</tspan><tspan x="794" y="379">(n = 204)</tspan><tspan x="794" y="394">• Did not receive allocated</tspan><tspan x="794" y="409">intervention (n = 3)</tspan></text></g>
<g class="node" data-id="followup_int"><rect x="64" y="438" width="260" height="80" rx="2" ry="2" fill="#fafafa" stroke="#222222" stroke-width="1.2"/><text text-anchor="middle" fill="#1a1a1a" font-size="12"><tspan x="194" y="475">Lost to follow-up (n = 6)</tspan><tspan x="194" y="490">Discontinued intervention (n = 4)</tspan></text></g>
<g class="node" data-id="followup_ctrl"><rect x="664" y="438" width="260" height="80" rx="2" ry="2" fill="#fafafa" stroke="#222222" stroke-width="1.2"/><text text-anchor="middle" fill="#1a1a1a" font-size="12"><tspan x="794" y="475">Lost to follow-up (n = 5)</tspan><tspan x="794" y="490">Discontinued intervention (n = 2)</tspan></text></g>
<g class="node" data-id="analysed_int"><rect x="64" y="536" width="260" height="80" rx="2" ry="2" fill="#eaf1ff" stroke="#222222" stroke-width="1.2"/><text text-anchor="middle" fill="#1a1a1a" font-size="12" font-weight="700"><tspan x="194" y="573">Analysed (n = 197)</tspan><tspan x="194" y="588">Excluded from analysis (n = 10)</tspan></text></g>
<g class="node" data-id="analysed_ctrl"><rect x="664" y="536" width="260" height="80" rx="2" ry="2" fill="#eaf1ff" stroke="#222222" stroke-width="1.2"/><text text-anchor="middle" fill="#1a1a1a" font-size="12" font-weight="700"><tspan x="794" y="573">Analysed (n = 200)</tspan><tspan x="794" y="588">Excluded from analysis (n = 7)</tspan></text></g>
<text x="940" y="634" font-size="9" fill="#9aa0a6" text-anchor="end">Generated by FlowDoc · preset consort-2010@1.0.0</text>
</svg>