<?xml version="1.0" encoding="UTF-8"?>
<svg xmlns="http://www.w3.org/2000/svg" xmlns:xlink="http://www.w3.org/1999/xlink" version="1.1" width="948" height="894" viewBox="0 0 948 894" font-family="Helvetica, Arial, 'Noto Sans', 'PingFang TC', sans-serif">
<metadata><rdf:RDF xmlns:rdf="http://www.w3.org/1999/02/22-rdf-syntax-ns#" xmlns:dc="http://purl.org/dc/elements/1.1/" xmlns:flowdoc="https://flowdoc.dev/ns#"><rdf:Description><dc:title>Effect of probiotic supplementation on antibiotic-associated diarrhoea: a systematic review</dc:title><dc:identifier>doi:10.0000/example.2026.001</dc:identifier><dc:creator>Lin W; Chen Y; Wang H</dc:creator><flowdoc:preset>prisma-2020@1.0.0</flowdoc:preset><flowdoc:generatedAt>2026-04-25T00:00:00Z</flowdoc:generatedAt></rdf:Description></rdf:RDF></metadata>
<defs><marker id="arrow" viewBox="0 0 8 8" refX="7" refY="4" markerWidth="8" markerHeight="8" orient="auto-start-reverse"><path d="M0,0 L8,4 L0,8 Z" fill="#222222"/></marker></defs>
<rect x="0" y="0" width="948" height="894" fill="#ffffff"/>
<g class="section"><rect x="24" y="24" width="34" height="194" fill="#f3f6fb" stroke="none" rx="4" ry="4"/><text x="41" y="121" transform="rotate(-90, 41, 121)" text-anchor="middle" dominant-baseline="middle" font-size="13" font-weight="700" fill="#37475a">Identification</text></g>
<g class="section"><rect x="24" y="236" width="34" height="458" fill="#f3f6fb" stroke="none" rx="4" ry="4"/><text x="41" y="465" transform="rotate(-90, 41, 465)" text-anchor="middle" dominant-baseline="middle" font-size="13" font-weight="700" fill="#37475a">Screening</text></g>
<g class="section"><rect x="24" y="712" width="34" height="70" fill="#f3f6fb" stroke="none" rx="4" ry="4"/><text x="41" y="747" transform="rotate(-90, 41, 747)" text-anchor="middle" dominant-baseline="middle" font-size="13" font-weight="700" fill="#37475a">Included</text></g>
<path d="M 194 130 L 194 236" fill="none" stroke="#222222" stroke-width="1.3" marker-end="url(#arrow)"/>
<path d="M 194 306 L 194 324" fill="none" stroke="#222222" stroke-width="1.3" marker-end="url(#arrow)"/>
<path d="M 194 394 L 194 412" fill="none" stroke="#222222" stroke-width="1.3" marker-end="url(#arrow)"/>
<path d="M 194 482 L 194 597 L 494 597 L 494 712" fill="none" stroke="#222222" stroke-width="1.3" marker-end="url(#arrow)"/>
<path d="M 324 77 L 364 77" fill="none" stroke="#222222" stroke-width="1.3" marker-end="url(#arrow)"/>
<path d="M 324 271 L 364 271" fill="none" stroke="#222222" stroke-width="1.3" marker-end="url(#arrow)"/>
<path d="M 324 359 L 364 359" fill="none" stroke="#222222" stroke-width="1.3" marker-end="url(#arrow)"/>
<path d="M 324 447 L 344 447 L 344 553 L 364 553" fill="none" stroke="#222222" stroke-width="1.3" marker-end="url(#arrow)"/>
<path d="M 794 130 L 794 324" fill="none" stroke="#222222" stroke-width="1.3" marker-end="url(#arrow)"/>
<path d="M 794 394 L 794 500" fill="none" stroke="#222222" stroke-width="1.3" marker-end="url(#arrow)"/>
<path d="M 794 394 L 794 412" fill="none" stroke="#222222" stroke-width="1.3" marker-end="url(#arrow)"/>
<path d="M 794 606 L 794 615 L 494 615 L 494 624" fill="none" stroke="#222222" stroke-width="1.3" marker-end="url(#arrow)"/>
<path d="M 794 606 L 794 659 L 494 659 L 494 712" fill="none" stroke="#222222" stroke-width="1.3" marker-end="url(#arrow)"/>
<g class="node" data-id="db_sources"><rect x="64" y="24" width="260" height="106" rx="2" ry="2" fill="#ffffff" stroke="#222222" stroke-width="1.2"/><text text-anchor="middle" fill="#1a1a1a" font-size="12"><tspan x="194" y="66.5">Records identified from:</tspan><tspan x="194" y="81.5">Databases (n = 1240)</tspan><tspan x="194" y="96.5">Registers (n = 82)</tspan></text></g>
<g class="node" data-id="prescreen_removed"><rect x="364" y="24" width="260" height="106" rx="2" ry="2" fill="#fafafa" stroke="#222222" stroke-width="1.2"/><text text-anchor="middle" fill="#1a1a1a" font-size="12"><tspan x="494" y="44">Records removed before screening:</tspan><tspan x="494" y="59">Duplicate records (n = 312)</tspan><tspan x="494" y="74">Records marked as ineligible by</tspan><tspan x="494" y="89">automation tools (n = 45)</tspan><tspan x="494" y="104">Records removed for other reasons</tspan><tspan x="494" y="119">(n = 0)</tspan></text></g>
<g class="node" data-id="other_sources"><rect x="664" y="24" width="260" height="106" rx="2" ry="2" fill="#ffffff" stroke="#222222" stroke-width="1.2"/><text text-anchor="middle" fill="#1a1a1a" font-size="12"><tspan x="794" y="59">Records identified from:</tspan><tspan x="794" y="74">Websites (n = 15)</tspan><tspan x="794" y="89">Organisations (n = 4)</tspan><tspan x="794" y="104">Citation searching (n = 8)</tspan></text></g>
<g class="node" data-id="records_screened"><rect x="64" y="236" width="260" height="70" rx="2" ry="2" fill="#ffffff" stroke="#222222" stroke-width="1.2"/><text text-anchor="middle" fill="#1a1a1a" font-size="12"><tspan x="194" y="268">Records screened</tspan><tspan x="194" y="283">(n = 965)</tspan></text></g>
<g class="node" data-id="records_excluded"><rect x="364" y="236" width="260" height="70" rx="2" ry="2" fill="#fafafa" stroke="#222222" stroke-width="1.2"/><text text-anchor="middle" fill="#1a1a1a" font-size="12"><tspan x="494" y="268">Records excluded</tspan><tspan x="494" y="283">(n = 702)</tspan></text></g>
<g class="node" data-id="reports_sought"><rect x="64" y="324" width="260" height="70" rx="2" ry="2" fill="#ffffff" stroke="#222222" stroke-width="1.2"/><text text-anchor="middle" fill="#1a1a1a" font-size="12"><tspan x="194" y="356">Reports sought for retrieval</tspan><tspan x="194" y="371">(n = 263)</tspan></text></g>
<g class="node" data-id="reports_not_retrieved"><rect x="364" y="324" width="260" height="70" rx="2" ry="2" fill="#fafafa" stroke="#222222" stroke-width="1.2"/><text text-anchor="middle" fill="#1a1a1a" font-size="12"><tspan x="494" y="356">Reports not retrieved</tspan><tspan x="494" y="371">(n = 12)</tspan></text></g>
<g class="node" data-id="reports_other_sought"><rect x="664" y="324" width="260" height="70" rx="2" ry="2" fill="#ffffff" stroke="#222222" stroke-width="1.2"/><text text-anchor="middle" fill="#1a1a1a" font-size="12"><tspan x="794" y="356">Reports sought for retrieval</tspan><tspan x="794" y="371">(n = 27)</tspan></text></g>
<g class="node" data-id="reports_assessed"><rect x="64" y="412" width="260" height="70" rx="2" ry="2" fill="#ffffff" stroke="#222222" stroke-width="1.2"/><text text-anchor="middle" fill="#1a1a1a" font-size="12"><tspan x="194" y="444">Reports assessed for eligibility</tspan><tspan x="194" y="459">(n = 251)</tspan></text></g>
<g class="node" data-id="reports_other_not_retrieved"><rect x="664" y="412" width="260" height="70" rx="2" ry="2" fill="#fafafa" stroke="#222222" stroke-width="1.2"/><text text-anchor="middle" fill="#1a1a1a" font-size="12"><tspan x="794" y="444">Reports not retrieved</tspan><tspan x="794" y="459">(n = 3)</tspan></text></g>
<g class="node" data-id="reports_excluded"><rect x="364" y="500" width="260" height="106" rx="2" ry="2" fill="#fafafa" stroke="#222222" stroke-width="1.2"/><text text-anchor="middle" fill="#1a1a1a" font-size="12"><tspan x="494" y="520">Reports excluded:</tspan><tspan x="494" y="535">Wrong population (n = 48)</tspan><tspan x="494" y="550">Wrong intervention (n = 41)</tspan><tspan x="494" y="565">Wrong outcome (n = 36)</tspan><tspan x="494" y="580">Wrong study design (n = 29)</tspan><tspan x="494" y="595">Conference abstract only (n = 12)</tspan></text></g>
<g class="node" data-id="reports_other_assessed"><rect x="664" y="500" width="260" height="106" rx="2" ry="2" fill="#ffffff" stroke="#222222" stroke-width="1.2"/><text text-anchor="middle" fill="#1a1a1a" font-size="12"><tspan x="794" y="550">Reports assessed for eligibility</tspan><tspan x="794" y="565">(n = 24)</tspan></text></g>
<g class="node" data-id="reports_other_excluded"><rect x="364" y="624" width="260" height="70" rx="2" ry="2" fill="#fafafa" stroke="#222222" stroke-width="1.2"/><text text-anchor="middle" fill="#1a1a1a" font-size="12"><tspan x="494" y="648.5">Reports excluded (other methods):</tspan><tspan x="494" y="663.5">Wrong population (n = 7)</tspan><tspan x="494" y="678.5">Duplicate of included study (n = 4)</tspan></text></g>
<g class="node" data-id="included"><rect x="64" y="712" width="860" height="70" rx="2" ry="2" fill="#eaf1ff" stroke="#222222" stroke-width="1.2"/><text text-anchor="middle" fill="#1a1a1a" font-size="12" font-weight="700"><tspan x="494" y="744">Studies included in review (n = 89)</tspan><tspan x="494" y="759">Reports of included studies (n = 98)</tspan></text></g>
<text x="940" y="888" font-size="9" fill="#9aa0a6" text-anchor="end">Generated by FlowDoc · preset prisma-2020@1.0.0</text>
</svg>