<?xml version="1.0" encoding="UTF-8"?>
<svg xmlns="http://www.w3.org/2000/svg" xmlns:xlink="http://www.w3.org/1999/xlink" version="1.1" width="688" height="652" viewBox="0 0 688 652" font-family="Helvetica, Arial, 'Noto Sans', 'PingFang TC', sans-serif">
<metadata><rdf:RDF xmlns:rdf="http://www.w3.org/1999/02/22-rdf-syntax-ns#" xmlns:dc="http://purl.org/dc/elements/1.1/" xmlns:flowdoc="https://flowdoc.dev/ns#"><rdf:Description><dc:title>Air pollution and incident asthma in adults: a prospective cohort</dc:title><dc:identifier>doi:10.0000/example.2026.003</dc:identifier><dc:creator>Wang H; Lin W</dc:creator><flowdoc:preset>strobe@1.0.0</flowdoc:preset><flowdoc:generatedAt>2026-04-25T00:00:00Z</flowdoc:generatedAt></rdf:Description></rdf:RDF></metadata>
<defs><marker id="arrow" viewBox="0 0 8 8" refX="7" refY="4" markerWidth="8" markerHeight="8" orient="auto-start-reverse"><path d="M0,0 L8,4 L0,8 Z" fill="#222222"/></marker></defs>
<rect x="0" y="0" width="688" height="652" fill="#ffffff"/>
<g class="section"><rect x="24" y="24" width="34" height="70" fill="#f3f6fb" stroke="none" rx="4" ry="4"/><text x="41" y="59" transform="rotate(-90, 41, 59)" text-anchor="middle" dominant-baseline="middle" font-size="13" font-weight="700" fill="#37475a">Source</text></g>
<g class="section"><rect x="24" y="112" width="34" height="164" fill="#f3f6fb" stroke="none" rx="4" ry="4"/><text x="41" y="194" transform="rotate(-90, 41, 194)" text-anchor="middle" dominant-baseline="middle" font-size="13" font-weight="700" fill="#37475a">Eligibility</text></g>
<g class="section"><rect x="24" y="294" width="34" height="158" fill="#f3f6fb" stroke="none" rx="4" ry="4"/><text x="41" y="373" transform="rotate(-90, 41, 373)" text-anchor="middle" dominant-baseline="middle" font-size="13" font-weight="700" fill="#37475a">Enrolment</text></g>
<g class="section"><rect x="24" y="470" width="34" height="70" fill="#f3f6fb" stroke="none" rx="4" ry="4"/><text x="41" y="505" transform="rotate(-90, 41, 505)" text-anchor="middle" dominant-baseline="middle" font-size="13" font-weight="700" fill="#37475a">Follow-up</text></g>
<g class="section"><rect x="24" y="558" width="34" height="70" fill="#f3f6fb" stroke="none" rx="4" ry="4"/><text x="41" y="593" transform="rotate(-90, 41, 593)" text-anchor="middle" dominant-baseline="middle" font-size="13" font-weight="700" fill="#37475a">Analysis</text></g>
<path d="M 344 59 L 364 59 L 364 150 L 384 150" fill="none" stroke="#222222" stroke-width="1.3" marker-end="url(#arrow)"/>
<path d="M 204 94 L 204 206" fill="none" stroke="#222222" stroke-width="1.3" marker-end="url(#arrow)"/>
<path d="M 344 241 L 364 241 L 364 329 L 384 329" fill="none" stroke="#222222" stroke-width="1.3" marker-end="url(#arrow)"/>
<path d="M 204 276 L 204 382" fill="none" stroke="#222222" stroke-width="1.3" marker-end="url(#arrow)"/>
<path d="M 204 452 L 204 470" fill="none" stroke="#222222" stroke-width="1.3" marker-end="url(#arrow)"/>
<path d="M 344 417 L 364 417 L 364 505 L 384 505" fill="none" stroke="#222222" stroke-width="1.3" marker-end="url(#arrow)"/>
<path d="M 204 540 L 204 558" fill="none" stroke="#222222" stroke-width="1.3" marker-end="url(#arrow)"/>
<path d="M 344 505 L 364 505 L 364 593 L 384 593" fill="none" stroke="#222222" stroke-width="1.3" marker-end="url(#arrow)"/>
<g class="node" data-id="source"><rect x="64" y="24" width="280" height="70" rx="2" ry="2" fill="#ffffff" stroke="#222222" stroke-width="1.2"/><text text-anchor="middle" fill="#1a1a1a" font-size="12" font-weight="700"><tspan x="204" y="56">Source population</tspan><tspan x="204" y="71">(n = 18420)</tspan></text></g>
<g class="node" data-id="excluded_eligibility"><rect x="384" y="112" width="280" height="76" rx="2" ry="2" fill="#fafafa" stroke="#222222" stroke-width="1.2"/><text text-anchor="middle" fill="#1a1a1a" font-size="12"><tspan x="524" y="132">Excluded (n = 4630)</tspan><tspan x="524" y="147">• Did not meet inclusion criteria (n =</tspan><tspan x="524" y="162">4250)</tspan><tspan x="524" y="177">• Other (n = 380)</tspan></text></g>
<g class="node" data-id="eligible"><rect x="64" y="206" width="280" height="70" rx="2" ry="2" fill="#ffffff" stroke="#222222" stroke-width="1.2"/><text text-anchor="middle" fill="#1a1a1a" font-size="12"><tspan x="204" y="238">Eligible</tspan><tspan x="204" y="253">(n = 13790)</tspan></text></g>
<g class="node" data-id="excluded_consent"><rect x="384" y="294" width="280" height="70" rx="2" ry="2" fill="#fafafa" stroke="#222222" stroke-width="1.2"/><text text-anchor="middle" fill="#1a1a1a" font-size="12"><tspan x="524" y="318.5">Not enrolled (n = 2590)</tspan><tspan x="524" y="333.5">• Declined to participate (n = 2110)</tspan><tspan x="524" y="348.5">• Could not be consented (n = 480)</tspan></text></g>
<g class="node" data-id="enrolled"><rect x="64" y="382" width="280" height="70" rx="2" ry="2" fill="#ffffff" stroke="#222222" stroke-width="1.2"/><text text-anchor="middle" fill="#1a1a1a" font-size="12" font-weight="700"><tspan x="204" y="414">Enrolled</tspan><tspan x="204" y="429">(n = 11200)</tspan></text></g>
<g class="node" data-id="lost"><rect x="384" y="470" width="280" height="70" rx="2" ry="2" fill="#fafafa" stroke="#222222" stroke-width="1.2"/><text text-anchor="middle" fill="#1a1a1a" font-size="12"><tspan x="524" y="494.5">Did not complete follow-up (n = 800)</tspan><tspan x="524" y="509.5">• Lost to follow-up (n = 612)</tspan><tspan x="524" y="524.5">• Withdrew (n = 188)</tspan></text></g>
<g class="node" data-id="completed"><rect x="64" y="470" width="280" height="70" rx="2" ry="2" fill="#ffffff" stroke="#222222" stroke-width="1.2"/><text text-anchor="middle" fill="#1a1a1a" font-size="12"><tspan x="204" y="502">Completed follow-up</tspan><tspan x="204" y="517">(n = 10400)</tspan></text></g>
<g class="node" data-id="excluded_analysis"><rect x="384" y="558" width="280" height="70" rx="2" ry="2" fill="#fafafa" stroke="#222222" stroke-width="1.2"/><text text-anchor="middle" fill="#1a1a1a" font-size="12"><tspan x="524" y="590">Excluded from analysis</tspan><tspan x="524" y="605">(n = 220)</tspan></text></g>
<g class="node" data-id="analysed"><rect x="64" y="558" width="280" height="70" rx="2" ry="2" fill="#eaf1ff" stroke="#222222" stroke-width="1.2"/><text text-anchor="middle" fill="#1a1a1a" font-size="12" font-weight="700"><tspan x="204" y="590">Included in analysis</tspan><tspan x="204" y="605">(n = 10180)</tspan></text></g>
<text x="680" y="646" font-size="9" fill="#9aa0a6" text-anchor="end">Generated by FlowDoc · preset strobe@1.0.0</text>
</svg>