<?xml version="1.0" encoding="UTF-8"?>
<svg xmlns="http://www.w3.org/2000/svg" xmlns:xlink="http://www.w3.org/1999/xlink" version="1.1" width="688" height="520" viewBox="0 0 688 520" font-family="Helvetica, Arial, 'Noto Sans', 'PingFang TC', sans-serif">
<metadata><rdf:RDF xmlns:rdf="http://www.w3.org/1999/02/22-rdf-syntax-ns#" xmlns:dc="http://purl.org/dc/elements/1.1/" xmlns:flowdoc="https://flowdoc.dev/ns#"><rdf:Description><dc:title>Air pollution and incident asthma in adults: a prospective cohort</dc:title><dc:identifier>doi:10.0000/example.2026.003</dc:identifier><dc:creator>Wang H; Lin W</dc:creator><flowdoc:preset>strobe@1.0.0</flowdoc:preset><flowdoc:generatedAt>2026-04-25T00:00:00Z</flowdoc:generatedAt></rdf:Description></rdf:RDF></metadata>
<defs><marker id="arrow" viewBox="0 0 8 8" refX="7" refY="4" markerWidth="8" markerHeight="8" orient="auto-start-reverse"><path d="M0,0 L8,4 L0,8 Z" fill="#222222"/></marker></defs>
<rect x="0" y="0" width="688" height="520" fill="#ffffff"/>
<g class="section"><rect x="24" y="24" width="34" height="80" fill="#f3f6fb" stroke="none" rx="4" ry="4"/><text x="41" y="64" transform="rotate(-90, 41, 64)" text-anchor="middle" dominant-baseline="middle" font-size="13" font-weight="700" fill="#37475a">Source</text></g>
<g class="section"><rect x="24" y="122" width="34" height="80" fill="#f3f6fb" stroke="none" rx="4" ry="4"/><text x="41" y="162" transform="rotate(-90, 41, 162)" text-anchor="middle" dominant-baseline="middle" font-size="13" font-weight="700" fill="#37475a">Eligibility</text></g>
<g class="section"><rect x="24" y="220" width="34" height="80" fill="#f3f6fb" stroke="none" rx="4" ry="4"/><text x="41" y="260" transform="rotate(-90, 41, 260)" text-anchor="middle" dominant-baseline="middle" font-size="13" font-weight="700" fill="#37475a">Enrolment</text></g>
<g class="section"><rect x="24" y="318" width="34" height="80" fill="#f3f6fb" stroke="none" rx="4" ry="4"/><text x="41" y="358" transform="rotate(-90, 41, 358)" text-anchor="middle" dominant-baseline="middle" font-size="13" font-weight="700" fill="#37475a">Follow-up</text></g>
<g class="section"><rect x="24" y="416" width="34" height="80" fill="#f3f6fb" stroke="none" rx="4" ry="4"/><text x="41" y="456" transform="rotate(-90, 41, 456)" text-anchor="middle" dominant-baseline="middle" font-size="13" font-weight="700" fill="#37475a">Analysis</text></g>
<path d="M 344 64 L 384 64" fill="none" stroke="#222222" stroke-width="1.3" marker-end="url(#arrow)"/>
<path d="M 204 104 L 204 122" fill="none" stroke="#222222" stroke-width="1.3" marker-end="url(#arrow)"/>
<path d="M 344 162 L 384 162" fill="none" stroke="#222222" stroke-width="1.3" marker-end="url(#arrow)"/>
<path d="M 204 202 L 204 220" fill="none" stroke="#222222" stroke-width="1.3" marker-end="url(#arrow)"/>
<path d="M 344 260 L 384 260" fill="none" stroke="#222222" stroke-width="1.3" marker-end="url(#arrow)"/>
<path d="M 204 300 L 204 318" fill="none" stroke="#222222" stroke-width="1.3" marker-end="url(#arrow)"/>
<path d="M 344 358 L 384 358" fill="none" stroke="#222222" stroke-width="1.3" marker-end="url(#arrow)"/>
<path d="M 204 398 L 204 416" fill="none" stroke="#222222" stroke-width="1.3" marker-end="url(#arrow)"/>
<g class="node" data-id="source"><rect x="64" y="24" width="280" height="80" rx="2" ry="2" fill="#ffffff" stroke="#222222" stroke-width="1.2"/><text text-anchor="middle" fill="#1a1a1a" font-size="12" font-weight="700"><tspan x="204" y="61">Source population</tspan><tspan x="204" y="76">(n = 18420)</tspan></text></g>
<g class="node" data-id="excluded_eligibility"><rect x="384" y="24" width="280" height="80" rx="2" ry="2" fill="#fafafa" stroke="#222222" stroke-width="1.2"/><text text-anchor="middle" fill="#1a1a1a" font-size="12"><tspan x="524" y="46">Excluded (n = 4630)</tspan><tspan x="524" y="61">• Did not meet inclusion criteria (n =</tspan><tspan x="524" y="76">4250)</tspan><tspan x="524" y="91">• Other (n = 380)</tspan></text></g>
<g class="node" data-id="eligible"><rect x="64" y="122" width="280" height="80" rx="2" ry="2" fill="#ffffff" stroke="#222222" stroke-width="1.2"/><text text-anchor="middle" fill="#1a1a1a" font-size="12"><tspan x="204" y="159">Eligible</tspan><tspan x="204" y="174">(n = 13790)</tspan></text></g>
<g class="node" data-id="excluded_consent"><rect x="384" y="122" width="280" height="80" rx="2" ry="2" fill="#fafafa" stroke="#222222" stroke-width="1.2"/><text text-anchor="middle" fill="#1a1a1a" font-size="12"><tspan x="524" y="151.5">Not enrolled (n = 2590)</tspan><tspan x="524" y="166.5">• Declined to participate (n = 2110)</tspan><tspan x="524" y="181.5">• Could not be consented (n = 480)</tspan></text></g>
<g class="node" data-id="enrolled"><rect x="64" y="220" width="280" height="80" rx="2" ry="2" fill="#ffffff" stroke="#222222" stroke-width="1.2"/><text text-anchor="middle" fill="#1a1a1a" font-size="12" font-weight="700"><tspan x="204" y="257">Enrolled</tspan><tspan x="204" y="272">(n = 11200)</tspan></text></g>
<g class="node" data-id="lost"><rect x="384" y="220" width="280" height="80" rx="2" ry="2" fill="#fafafa" stroke="#222222" stroke-width="1.2"/><text text-anchor="middle" fill="#1a1a1a" font-size="12"><tspan x="524" y="249.5">Did not complete follow-up (n = 800)</tspan><tspan x="524" y="264.5">• Lost to follow-up (n = 612)</tspan><tspan x="524" y="279.5">• Withdrew (n = 188)</tspan></text></g>
<g class="node" data-id="completed"><rect x="64" y="318" width="280" height="80" rx="2" ry="2" fill="#ffffff" stroke="#222222" stroke-width="1.2"/><text text-anchor="middle" fill="#1a1a1a" font-size="12"><tspan x="204" y="355">Completed follow-up</tspan><tspan x="204" y="370">(n = 10400)</tspan></text></g>
<g class="node" data-id="excluded_analysis"><rect x="384" y="318" width="280" height="80" rx="2" ry="2" fill="#fafafa" stroke="#222222" stroke-width="1.2"/><text text-anchor="middle" fill="#1a1a1a" font-size="12"><tspan x="524" y="355">Excluded from analysis</tspan><tspan x="524" y="370">(n = 220)</tspan></text></g>
<g class="node" data-id="analysed"><rect x="64" y="416" width="280" height="80" rx="2" ry="2" fill="#eaf1ff" stroke="#222222" stroke-width="1.2"/><text text-anchor="middle" fill="#1a1a1a" font-size="12" font-weight="700"><tspan x="204" y="453">Included in analysis</tspan><tspan x="204" y="468">(n = 10180)</tspan></text></g>
<text x="680" y="514" font-size="9" fill="#9aa0a6" text-anchor="end">Generated by FlowDoc · preset strobe@1.0.0</text>
</svg>